<svg id="Calque_1" data-name="Calque 1" xmlns="http://www.w3.org/2000/svg" viewBox="0 0 514 30.87"><defs><style>.cls-1{fill:#fff;}</style></defs><line class="cls-1" y1="15.43" x2="514" y2="15.43"/><path class="cls-1" d="M557.4,117.26c.76.15.49-1.53.6-1.83C556.73,115.8,557.43,117.7,557.4,117.26Z" transform="translate(-44 -111.57)"/><polygon class="cls-1" points="500.87 9.5 501.09 8.82 499.25 10.49 500.87 9.5"/><path class="cls-1" d="M533.16,121c1.11,2.85,4.24-.47,6.33.55l.34.65.95-2.3C538.24,120.31,534.94,121.83,533.16,121Z" transform="translate(-44 -111.57)"/><path class="cls-1" d="M526.91,114.86c.39,1.11-1.35,1,1.46.35a3.29,3.29,0,0,1-.27-.28A6.47,6.47,0,0,1,526.91,114.86Z" transform="translate(-44 -111.57)"/><path class="cls-1" d="M528.1,114.93c1.24-.08-.8-.94,0,0Z" transform="translate(-44 -111.57)"/><path class="cls-1" d="M522.41,115.56l1.62-1c-.34-.66-1.78-.8-1.25-1.28C521.12,113.83,521.46,114.48,522.41,115.56Z" transform="translate(-44 -111.57)"/><path class="cls-1" d="M520.87,117.65l.84-.42C521.56,117,521.34,116.86,520.87,117.65Z" transform="translate(-44 -111.57)"/><path class="cls-1" d="M523.49,116.34l-1.78.89c.23.46.26,1.38.82-.32C522.38,117.75,522.74,116.94,523.49,116.34Z" transform="translate(-44 -111.57)"/><path class="cls-1" d="M524.51,116.78c.91.62,2.08,1,.45,2C528.07,118.38,527.61,116.38,524.51,116.78Z" transform="translate(-44 -111.57)"/><path class="cls-1" d="M532.56,124l1.22.83,1.05-.95C534.31,124.34,532.48,123.09,532.56,124Z" transform="translate(-44 -111.57)"/><path class="cls-1" d="M512.28,114.08c-.1.61.55,1.62.67,2.4l1.2-.7C513.54,115.37,512.37,115,512.28,114.08Z" transform="translate(-44 -111.57)"/><path class="cls-1" d="M513,116.48l-1.79,1C512.76,117.65,513.05,117.15,513,116.48Z" transform="translate(-44 -111.57)"/><polygon class="cls-1" points="476.58 9.25 479.53 7.06 476.01 9.28 476.58 9.25"/><polygon class="cls-1" points="461.43 2.44 462.44 1.03 460.63 3.16 461.43 2.44"/><path class="cls-1" d="M500.88,114.25c.75-1.16-1-2-.24-2.68a6.88,6.88,0,0,0-3.24,2.1C498.41,113.17,499.48,113.3,500.88,114.25Z" transform="translate(-44 -111.57)"/><path class="cls-1" d="M495.8,115a8.32,8.32,0,0,0,1.6-1.31A4.77,4.77,0,0,0,495.8,115Z" transform="translate(-44 -111.57)"/><path class="cls-1" d="M508.1,117.22a2.61,2.61,0,0,0-1.42-1.73l.71,1.71Z" transform="translate(-44 -111.57)"/><path class="cls-1" d="M507.41,117.25l0,0c-.77,0-1.3-.08-1.53-.1Z" transform="translate(-44 -111.57)"/><path class="cls-1" d="M508.28,117.23h-.18C508.17,117.39,508.21,117.45,508.28,117.23Z" transform="translate(-44 -111.57)"/><path class="cls-1" d="M515.87,119.27c-1.06,1-3.26,2-1.13,3.44C515.5,121.54,514.28,120.71,515.87,119.27Z" transform="translate(-44 -111.57)"/><path class="cls-1" d="M509.15,119.37l1.91.39c0-.45-.38-1.11.14-1.59Z" transform="translate(-44 -111.57)"/><polygon class="cls-1" points="464.22 8.34 465.15 7.8 464.44 7.66 464.22 8.34"/><path class="cls-1" d="M499.07,116.58a4.35,4.35,0,0,1-2.74.93,10.84,10.84,0,0,0,3.29.51C499.77,117.49,500.24,116.52,499.07,116.58Z" transform="translate(-44 -111.57)"/><path class="cls-1" d="M503.13,117.06l-.19.1C503.06,117.3,503.15,117.35,503.13,117.06Z" transform="translate(-44 -111.57)"/><path class="cls-1" d="M486.3,117.5a3,3,0,0,1,.16.31c0-.1,0-.2,0-.3Z" transform="translate(-44 -111.57)"/><path class="cls-1" d="M499.8,118.34c.82.33,1.31-.09,1.78-.61a7.66,7.66,0,0,1-2,.29C499.55,118.27,499.54,118.43,499.8,118.34Z" transform="translate(-44 -111.57)"/><path class="cls-1" d="M493,115.78a8.33,8.33,0,0,0,1.42.94C494,116.18,493.16,115.34,493,115.78Z" transform="translate(-44 -111.57)"/><path class="cls-1" d="M502.67,116.68l.12-.07C502.52,116.24,502.55,116.42,502.67,116.68Z" transform="translate(-44 -111.57)"/><path class="cls-1" d="M502.67,116.68a4.71,4.71,0,0,0-1.09,1,5.2,5.2,0,0,0,1.36-.57A2,2,0,0,1,502.67,116.68Z" transform="translate(-44 -111.57)"/><path class="cls-1" d="M483.27,128.47a2.42,2.42,0,0,1,4.16-1.35c1.83-1.19.63-6.4-1-9.31,0,.69,0,1.33-1.94,2.26.66.87,4.19,2,2.59,3.46-2.49.82-2-.56-3.26-1.4,1,2-3.17,2.88-2.63,5.78l2.19-1C483.45,127.34,482.66,128.06,483.27,128.47Z" transform="translate(-44 -111.57)"/><path class="cls-1" d="M490.06,118l.77-.2c-.88-.27-1.52-.9-2.68-2.14-1.29.77-1.56,1.36-1.65,1.88l3.82.22Z" transform="translate(-44 -111.57)"/><path class="cls-1" d="M494.31,117.77c-.6,1.72-2.46,2.45-1.32,4.32,2.27-.12,1.59-1.44,2.95-2.19-3.67.43,1.06-1-1.6-1.94a7.22,7.22,0,0,1,2-.45,11.35,11.35,0,0,1-1.9-.79l.08.11h0v0c.15.22.21.35,0,.22a.3.3,0,0,1-.08,0,2.22,2.22,0,0,1-.17.65c-1.06-.36-.16-.45.17-.65,0-.09,0-.17,0-.26l0,0-3.68.94A9.09,9.09,0,0,0,494.31,117.77Z" transform="translate(-44 -111.57)"/><path class="cls-1" d="M512.78,126.41a.66.66,0,0,1-.12-.4C512.42,126.22,512.33,126.37,512.78,126.41Z" transform="translate(-44 -111.57)"/><path class="cls-1" d="M511.27,125.37c.26-.24.49-.93,1.36-.75.75.52,0,.83,0,1.39.53-.45,1.84-1.23.19-2.07l-.26.23c-1.48-.59-3.38-2.74-3.12-3A13.16,13.16,0,0,0,511.27,125.37Z" transform="translate(-44 -111.57)"/><path class="cls-1" d="M502.68,122l-3.06.85,1.56,1.49-.08-.9C502.84,123.8,502.47,122.7,502.68,122Z" transform="translate(-44 -111.57)"/><polygon class="cls-1" points="441.95 5.07 442.36 3.25 440.59 5.82 441.95 5.07"/><polygon class="cls-1" points="437.97 5.29 438.12 3.71 437.07 4.66 437.97 5.29"/><path class="cls-1" d="M257.27,136.5l-.91.45A2.94,2.94,0,0,0,257.27,136.5Z" transform="translate(-44 -111.57)"/><path class="cls-1" d="M263.78,136.61l.16-.78C263.64,136.26,263.52,136.57,263.78,136.61Z" transform="translate(-44 -111.57)"/><path class="cls-1" d="M384.17,117c-1.31-1.48-2.77-3.77-2.61-2l.4,1.73A2.4,2.4,0,0,1,384.17,117Z" transform="translate(-44 -111.57)"/><path class="cls-1" d="M317.2,127.4l.38.53.89-1.66C318.09,126.62,317.65,127,317.2,127.4Z" transform="translate(-44 -111.57)"/><path class="cls-1" d="M316.27,134.58l-1.73-1.12A5.94,5.94,0,0,0,316.27,134.58Z" transform="translate(-44 -111.57)"/><path class="cls-1" d="M221.66,138.34l-1,1.77C222.26,140.1,221.53,139.21,221.66,138.34Z" transform="translate(-44 -111.57)"/><path class="cls-1" d="M441.19,117.5a6.9,6.9,0,0,0-2.83-1C439.73,117.45,440.83,118.94,441.19,117.5Z" transform="translate(-44 -111.57)"/><path class="cls-1" d="M259.83,118.08c-.55.32-.79.67-.77,1.06C259.63,118.84,260,118.51,259.83,118.08Z" transform="translate(-44 -111.57)"/><path class="cls-1" d="M435.1,116.46c.2.17.39.26.59.41a5.7,5.7,0,0,1,2.67-.42C437.36,115.71,436.2,115.25,435.1,116.46Z" transform="translate(-44 -111.57)"/><path class="cls-1" d="M92.55,136.9c-.09-.08-.21-.11-.29-.2C92.23,136.93,92.36,136.94,92.55,136.9Z" transform="translate(-44 -111.57)"/><path class="cls-1" d="M54.94,119.39a7.43,7.43,0,0,1,1.54-.13A2.42,2.42,0,0,0,54.94,119.39Z" transform="translate(-44 -111.57)"/><path class="cls-1" d="M466,116.1c.84-.11.13-.19,0,0Z" transform="translate(-44 -111.57)"/><path class="cls-1" d="M470.06,123a1.28,1.28,0,0,0-.34.85A1.66,1.66,0,0,1,470.06,123Z" transform="translate(-44 -111.57)"/><path class="cls-1" d="M426.68,127.26h-.07C426.86,127.59,426.82,127.53,426.68,127.26Z" transform="translate(-44 -111.57)"/><path class="cls-1" d="M467.22,116.89a4.14,4.14,0,0,0-1.08-.51A4.35,4.35,0,0,0,467.22,116.89Z" transform="translate(-44 -111.57)"/><path class="cls-1" d="M467.05,116.07c.29.08.52.12.74.17C467.89,116,467.8,115.77,467.05,116.07Z" transform="translate(-44 -111.57)"/><path class="cls-1" d="M464.77,116.2a3.85,3.85,0,0,1,1.37.18c-.17-.12-.24-.22-.19-.28Z" transform="translate(-44 -111.57)"/><path class="cls-1" d="M161.73,132.26a1.41,1.41,0,0,1-.18-.17C160.7,132.81,161.07,132.7,161.73,132.26Z" transform="translate(-44 -111.57)"/><path class="cls-1" d="M362.19,135.06s.06-.06.1-.09a.45.45,0,0,1-.12-.06Z" transform="translate(-44 -111.57)"/><path class="cls-1" d="M359.16,136.35c1.29-2.16,2-1.89,3-1.44l-1-5Z" transform="translate(-44 -111.57)"/><path class="cls-1" d="M241.66,137l2.13,1.56c-2.57,2.57-4.43,1.68-2.43,3.87.3-5.43,8.28-.55,8.57-6l1.41,1.14c-.41-.05-.47.27-.87.21,2.73,2.61,2-3.92,5.55-3.15,1.23.42,2.08,1.21,1.25,1.85l2.73-1.34c.79.1.6,1.05-.19.94l4.16-.43,0,.16a19.51,19.51,0,0,1,2.6-2.73c1.06.78-.53.57-.26,1.25l2.31-1.31c.94,1.4-1,2.77-2.57,2.57,2.16,5.42,1.92-1.37,6.57,1.8l-2.18.69c1.41,3.08,3.11,2,5.57,3.88-.58-1-4.93-4.84-2.43-6.19.71.41,1.64.6,3-.49,0,1.93,1.33,1.46,3,1.35l-.11,2.56c1.78-.74,1.64-2,2.69-3.2,2,.26,2.4,2.24,2.87,3.91,3.19.4-2.2-3.18,1.57-3.66,2.65,1,4.51-.07,7.68-1.6,1.86.88-.32,1.56.34,2.3l1.65-2c.4,0,.27.67.2,1,1.39-.79.12-2.56,2.29-3.25.59-2.82,4.47,4.12,7.17.91.66.73-.32,1.57-.12,2.56,3.7-2.1,3.17-1.52,6.21-4.35l2.58,1.68c-1.9-1.92.53-4.19,2.66-6.06a23.5,23.5,0,0,0-1.64-2.13l3.4-1.37c.41.42.06,1.3-.49,2.37.23-.22.45-.42.62-.62,1.21.95.58,2.42-.29,3.85-.41-.5-.82-1-1.22-1.57-.84,1.55-1.62,3.27-1.45,4.77a2.2,2.2,0,0,1,1.12-.69,1.46,1.46,0,0,0-.26,1.05c.11.27.47-.29,1-.95l.77,2.85.19-1.13,4.44,1.79c3.18-2.87,5.94-7.1,11-8.28-1.25,2.09-.27,3.42-.33,5.9-1.38-2.63-3.91,1.11-6.52.58a1.11,1.11,0,0,1,.72,1.87l4.66-2.39c-.11,2,1,1.52,2.2,2.36-.92-4,3.48-2.67,5.37-3.9.12,1.35-.33,2.72-2.65,2.4,2.56,3,3.3-4.71,5.81-2.15-.57,0-.87-.17-1.1.51,1.32-1.19,4.55-.24,3.79.93l-.56,0c3.75.48,11.41,0,12-3.37a35.41,35.41,0,0,1-.71,4.79l6.69-11.45c-.59,2.93,1.67,9.88-1.44,11.53a3.69,3.69,0,0,0,3.88-.12c-.61-.42-1.52-4.23-.68-4.5,2.28,3.26,1.58,1.74,4.4,4.52-.91-.63.1-5.21,1.54-5.07-.22.69.12,4.53-.4,5l3.59-4.49c-.9.81-.16,3.81.64,5.08-.37-.88,3.11.08,4.06-.36L377.8,134c4.06.68,4-6.32,8-6.09-.49.93-1.2,5.72.84,6.29.94-2.3,4.16-11.08,7.72-12.86l.68,1.32,2.73-1.5a80.75,80.75,0,0,1-9.08,13.6c1.52,1,.42,1.55,2.7,1.43.8,1.24-1.24,1.88-1.91,2l5.29.8c-.24-2.7,4.05-2.7,3.84-4.94l-5.74,2.79c-.24-2.69,3.32-7.64,7.07-7.16.95,1.07-.71,4.78-.64,5.68.49-.92,3.56-1.77,3.91-1.11l-1.59,1.44c2.08,1,3.4-3.57,5.91-1,.87.17,2.59,3.46,2.73,1.87-1.41-3.07-1.68-12.56-.74-14.86.3.2,4.54,2.93,5.53,4.44,1.43,2.41-2.14,5.74-.92,7.81a3.68,3.68,0,0,1,1.16-1.94c.91.63-.37,2.28,1.6,1.95.33-2.73,4,.23.94-2.31,1.93-.78,2.05.56,4.32.44-.72-1.76,2-6,4-6.77a3.84,3.84,0,0,0,.53,2c4,.24,6.09,1.48,9.78,1.51.34.66,2.13,1.45,1.37,2.63.53-.48,1-1.41,2.16-1.47,2.2,2.35-2.54.36-.86,3.2.14-1.59,2.94-2.19,4.57-3.18-.5-2.45-3.75-.47-5.38.52,0-3.38,2.82-6.91,6.68-8.47,3.07-.84,1.33,2.18,1.87,1.7,5.76.59,4.91-5.9,9.69-3.46,1.9,2.15.09,4.28.51,5.83-2.5.81-3.84-1.36-5.53-1.28l2.08,1c-.79.71-2.46,1.26-3.37.63,1.59,1.94,9.74.37,14.18,2.16.79-.72,2.16-1.47,1.51-2.33l-1.41.3c-1.29-1.74,2.65-2.4.87-3.21,1.89-1.22,4-3.14,6.66-2.16l.5,2.46a1.69,1.69,0,0,0-2.48-.72c1.1-1.08,4.07,3.32,5.28.11l-1.86-1.7c1.9-1.23,4.24-3.83,6.59-3.06-1.07-2.42-.54.28-2.21-2.56,1.45,3.53-6-.15-3.7,3.56-1.71-3.29-3-1.4-5.21-4.2.07.81.79,1.55-1.18,1.15a3.15,3.15,0,0,1-.44.71l-.13-.06.11.1c-.09.12-.09.14,0,0a2.83,2.83,0,0,1,1,1.23c-1,1.86-4.13,1.8-5.19,2.76-1.17-.38.49-.93-.15-1.79l-1.59,1.44c-.16-1.8-3.11-3-.35-4l-2.49-.08c-1.46-1-3.48-1.41-4.72-.65-1.17-.39-3,2-1.94.58l-3.9,1.11,0-.45c-3.84-.22-7.92,3-12.32-.26a7.52,7.52,0,0,1-4.8.49l-.42-1.55c-1.66.54-5-1.56-5.71.06-1.79-4.18-8.07-.91-11-1.65l-.11,2a17.62,17.62,0,0,0-6.44,1.27l.15,1.8c-2.15,1.47-5.54-1.28-8.95-1.1.23-.68,1.1-.5,1.71-.09-4.07-4-8.59,3-12.29,0a1.7,1.7,0,0,1-2.23,0,.37.37,0,0,0,.23-.1,2.06,2.06,0,0,0-.38,0,14.16,14.16,0,0,0-1.28-.95,4.67,4.67,0,0,0,1.08,1,9,9,0,0,0-2.84.71l-.45-1.93a1.68,1.68,0,0,0-.24.06c-1-.71-.84.91-.28,2.36a4.93,4.93,0,0,0-1.4,1.16c-.84-3.11-2.77,1-3.92-2.27-.71,1.62-5.3,1.22-5.86,4.62,0-.44-.35-.66.22-.68-1.18-.39-2.35-.78-3.41.18l-.5-2.45L364,123.05c-1.56-1.49-2.2-2.35-.65-4.24-3.75,2.9-3,1.09-6.22,4l.15-1.59c-1.13.06-2.95,2.18-3.64.87-2.54-3-12.59-.41-19.12-3.21,1.27,4.66-3-2.09-3.29,1.53-.38-1.11-1.29-1.73-.23-2.69-3.34,1.09-5-1.75-7.31,1.3-.39-1.11.71-1.62.37-2.27-.27.24-1.06,1-1.41.3s.49-.93,1-1.41c-3.4.19-3.75,3.59-4,6.78-1.72-1.51-2.58-1.3-3.83.79-.6-1-1.6-2.13.51-2.51-1.19-.15-7.27-1.53-7.39,1-.37-.65-1.66-.19-2,.1a26.32,26.32,0,0,0-5.53-.14l.73.42c-1,3.09-2.18.69-4.3,1.06l.06-.32c-4.85-2.22-2.09,1.07-6.87-1.47l.26,1.92c-.45,4.13-4.24-2.43-7-.86l1,1.1c-1.52,1.41-4.24-5.61-5.76-6.13-.34-.36.52-.57,1-.84-4-2.43-.51,2.51-3.48,3.1-.55-1.36.7-3.45-1.3-3.7-1-1.1-5.79,4.4-8.52,1.8.6,1.05,1.2,2.09-.18,2.87-2.12.38-5.72-4-7.63-.65a1.25,1.25,0,0,1-.38-.82c-1.62.85-5.25,1.41-6.23,3.2-1.49-6.63-10,3.22-10-2.89l-5,.32.13-.62c-3.18-.4-4.3,1.06-5.42,2.53-.73-.42-.2-1-.14-1.31-4.64-1.23-5.1-1-9,2.07l-.41-2c-1.05,1.15-6.71-3.11-11.27-.8a1.41,1.41,0,0,1,.5-.88c-5.12,2.32-12.26-5.5-14.14,1.72l-3.38,1.78c4.37.56-.65,3.13,1.15,4.33-1.72.42-4.45-2.18-2.34-2.55l.33.36c.78-3.76-5.43-1.33-5.31-3.9-8.61.19-17-1.89-25.07-2.06l.93,2.93-2.81-.17c-.74-.68-1-2.29,1-2.17-1.06-1.65-3.37,1.39-3.43,2-3.92-1.19,1.54-3.41.33-3.48l-1.63.22.37.34c-1.33,1.19-1.45,2.46-3.86,2.32-1.53-.59-.78-1.81-1.38-1.92,0-.21-.2-.31-.92-.09l-3.55-.25,1.42,2.32c-1.57,1.13-3.33-.13-1.7,2.49-2.4-4-13.22-1.45-14.69-2.7-2.2,1.68-4.37,1.65-7.06,1.45.67.48,1.07,3.08-1.25,2.76.85-5.36-4.25-2.33-6.12-6.18,1.67,2.56-6.6.63-4,4.26-1.94-.43-.12-2-1.59-3.27-4.6,2.08-10.15-1.35-15.85-.64-.08.7.87,1.77-.35,2.82l-3-3.52c-1.12.35-1,4.06-3.09,1.62.29.59.72,1.49,0,1.71-11.16-3.43-22.8,2.81-34.13-3.63,1.54,1.36.51,1.5-.66,1.55.76.32,0,1.74.13,2.69l-4.74-2.65c-.86,2.65-5.09.18-5.58,2.71l1.5-.46c-2,3,2.8,6.64,2.5,10.47,2.24-3.39,5.9,5,9.57.17.81.78-.69,1.24-.26,2.12.93-1.64,2.06-2,4.14-1.24l-.24.4c5.85-.4,8.36,1.22,14.93,2.3L78,133.88a4.39,4.39,0,0,1,2.37,1.32c1.62-2.88-4-.16-2.49-3.33,1.87,3.85,10,.06,11.22,4.44,2.17,0-.64-2.2,1.53-2.17l.58,1.18.55-1.52a2.94,2.94,0,0,1,2.19,2.74c-.34-.12-1,.28-1.35.36,1.85,1.4,5.21-.47,5.84,0l-2.08-.73c5.92-1.11,13.16.45,18.89-2l-.44-.9c4.38-1.65,3.51,1,8.31.22l-.18.21a4.71,4.71,0,0,1,3.56-1.24c-1.21,1.05,2.28,2,.69,3.2,4.75-1.78,2.35-1.4,5.48-4.72l.72,1.48c1.07-1.34,1.16-2.05,3.56-2.43-2,1.27,1.53,2.26-.67,3.94,5,3.25,7.47-3.27,9.78,1.47,2.31-4.1-4.36-2.28-3.06-3.16-1.09-1.34,1.9-3.06,3.48-2.65,1.61.09,2.74,5.25,6.78,5.17-.4,0-.43.29-.83.27,1.51,1,3-1.41,4.82.29,1-2.48,2.41.14,2.71-3l-3.71.74c2.1-.83,4.08-4.54,7.54-2.74a6.17,6.17,0,0,1-2,1.95c1,.93,2-.62,3,.34-.3,3.17-4.51.69-6.76,3.1,1.09,1.34,4.26-2.29,3.13,1.14,1.63-4.36,4,.55,6.72-2.78l-.18,1.9c.44-.3,1.33-1.2,2.13-1.15l-1.44,2.46c2.21-2.1,4.27,1.84,6.4.69-4.45.06-1-2.28-2.88-3.67,5.49-2.54,3.15,5,9.3,4.06-.83.27-3.12-1.14-1.82-2a7.33,7.33,0,0,1,3.43,2.11c4.08-.39-.62-1.95,1.11-3.12,1.39,2.32,2-.94,3.79-1.68v1.93c4.64,1.24,1.23-4,5.41-2.52l-1.77,2.67,2.18-.69-.45,2.2c2.37-1.63,3.11-1.21,5.43-.6a2.66,2.66,0,0,1,2.36-3.56c1.41,1.15-.78,1.84,2.13,1.56-.65,1.21-1.38,2.72-2.64,1-.13.63-.65,1.21-.79,1.83,1.51,1.32,3.8.3,4.85.28a2,2,0,0,1-1.14-.45l4.23-2.67c.66.72.14,1.3-.39,1.87.86-.21,1.45-1.09,2.71-1.26-.33,1.57-.25,3.19-2,3.93l4-1.74c.26.68,2.06,1.87,1.54,2.45,2.23.92,5.47-3,8.43-1.83a1.84,1.84,0,0,1,1.09-.82c2.78.36,5.25,2.28,8.54.13l1.87,2.81c2.58-.64-2.53-3.54,1.77-4.6,3-.9,1.14,2.4,2.2,3.18,1.52-1.42,4.15-4.3,6.94-2C243.25,137.21,242.52,136.79,241.66,137Zm31.83-1.25c-.62.41-1.85,1.66-2.3.52C271.9,134.06,272.44,135.12,273.49,135.75Zm48.39-4.64c-.45.64-1.16.32-2-.41A2.27,2.27,0,0,1,321.88,131.11Zm134.81-13.44-.06.1C455.25,117,455.74,117.31,456.69,117.67Zm2.86.84a.63.63,0,0,0,.15-.81c-.2.49-.85.52-1.58.39C458.33,118.59,458.7,118.94,459.55,118.51Zm-306.84.76.56.5C152,120.33,152.36,119.83,152.71,119.27Z" transform="translate(-44 -111.57)"/><path class="cls-1" d="M316.4,133.75a2.77,2.77,0,0,1-.27-1.05C315.89,133,315.89,133.4,316.4,133.75Z" transform="translate(-44 -111.57)"/><path class="cls-1" d="M221.86,138l-.1,0a1.54,1.54,0,0,0-.1.35Z" transform="translate(-44 -111.57)"/><path class="cls-1" d="M415.29,134.87a2.45,2.45,0,0,1-1.13-1C414.12,134.35,414.39,134.75,415.29,134.87Z" transform="translate(-44 -111.57)"/><path class="cls-1" d="M474.69,115.23l-1.83.5a2,2,0,0,1,1.65.64C474.47,115.91,474.12,115.26,474.69,115.23Z" transform="translate(-44 -111.57)"/><path class="cls-1" d="M490.58,127.17c.26-.23.56,0,.83-.26l-.08-.9C490.2,126.07,489.4,126.79,490.58,127.17Z" transform="translate(-44 -111.57)"/><path class="cls-1" d="M476.39,121.64c.14,1.63,1.29,1.07,2.57.77a.59.59,0,0,1-.23,0C479.11,120.14,477.75,120.89,476.39,121.64Z" transform="translate(-44 -111.57)"/><path class="cls-1" d="M479.26,122.36a2.94,2.94,0,0,1,1.18,0C480.59,121.41,480,122.13,479.26,122.36Z" transform="translate(-44 -111.57)"/><path class="cls-1" d="M463.17,117.43c.61.42.39-2.07.73-1.41C464.58,114,459.85,118.52,463.17,117.43Z" transform="translate(-44 -111.57)"/><polygon class="cls-1" points="433.42 15.42 432.96 13.42 432.25 15.04 433.42 15.42"/><path class="cls-1" d="M467.3,125.52l2.05.55c0-.33.23-.53.55-.68C468.64,125.32,467.25,124.93,467.3,125.52Z" transform="translate(-44 -111.57)"/><path class="cls-1" d="M469.9,125.39a2.31,2.31,0,0,0,1.65-.33A5.16,5.16,0,0,0,469.9,125.39Z" transform="translate(-44 -111.57)"/><polygon class="cls-1" points="430.62 16.03 430.02 15.61 428.57 15.46 430.62 16.03"/><path class="cls-1" d="M445.28,125.13l-2.24.58c-.22.68.38,1.1,1.22.83C444.79,126.06,445.62,125.8,445.28,125.13Z" transform="translate(-44 -111.57)"/><path class="cls-1" d="M452,130.62c-.6-.41-.64-.86-1-1.52l-.06,2.48Z" transform="translate(-44 -111.57)"/><path class="cls-1" d="M445.52,131.2c-.22.69-3.24,2-.41,1.82C445.34,132.34,447.58,131.77,445.52,131.2Z" transform="translate(-44 -111.57)"/><polygon class="cls-1" points="367.83 16.49 368.4 16.46 368.32 12.39 367.83 16.49"/><path class="cls-1" d="M382.14,137.8c2.65,1,.63-2.51,3-1.29.63-1-2-1-1.31-1.83C382.25,135.7,381.41,135.13,382.14,137.8Z" transform="translate(-44 -111.57)"/><path class="cls-1" d="M383.85,134.68a5.49,5.49,0,0,0,.81-.62A2.57,2.57,0,0,0,383.85,134.68Z" transform="translate(-44 -111.57)"/><polygon class="cls-1" points="4.7 5.64 2.99 4.79 4.09 6.16 4.7 5.64"/><path class="cls-1" d="M45.42,120.22l-.4-2.59L44,120C44.39,119.86,45.13,119.64,45.42,120.22Z" transform="translate(-44 -111.57)"/><path class="cls-1" d="M278.22,141l.13-.62c-.26-.68-.66-.73-1.46-.83Z" transform="translate(-44 -111.57)"/><polygon class="cls-1" points="211.12 27.48 211.52 27.53 210.77 25.18 211.12 27.48"/><path class="cls-1" d="M235.73,142c.79.09,1.72-.43,2.51-.33C236.52,142.13,235.51,139.11,235.73,142Z" transform="translate(-44 -111.57)"/></svg>